<svg width="0" height="0" class="hidden" xmlns="http://www.w3.org/2000/svg">
  <symbol viewBox="0 0 21 20" fill="none" id="eye">
    <path d="M10.3828 7.5H10.5C11.1771 7.5 11.763 7.7474 12.2578 8.24219C12.7526 8.73698 13 9.32292 13 10V10.1562L10.3828 7.5ZM6.78906 8.16406C6.47656 8.78906 6.32031 9.40104 6.32031 10C6.32031 11.1458 6.72396 12.1354 7.53125 12.9688C8.36458 13.776 9.35417 14.1797 10.5 14.1797C11.099 14.1797 11.7109 14.0234 12.3359 13.7109L11.0469 12.4219C10.8385 12.474 10.6562 12.5 10.5 12.5C9.82292 12.5 9.23698 12.2526 8.74219 11.7578C8.2474 11.263 8 10.6771 8 10C8 9.84375 8.02604 9.66146 8.07812 9.45312L6.78906 8.16406ZM2.17969 3.55469L3.23438 2.5L18 17.2656L16.9453 18.3203C16.8151 18.1901 16.3984 17.7865 15.6953 17.1094C15.0182 16.4323 14.4974 15.9115 14.1328 15.5469C13.013 16.0156 11.8021 16.25 10.5 16.25C8.44271 16.25 6.58073 15.6771 4.91406 14.5312C3.2474 13.3854 2.04948 11.875 1.32031 10C1.60677 9.32292 2.04948 8.58073 2.64844 7.77344C3.27344 6.9401 3.8724 6.30208 4.44531 5.85938C4.13281 5.54688 3.6901 5.10417 3.11719 4.53125C2.57031 3.95833 2.25781 3.63281 2.17969 3.55469ZM10.5 5.82031C9.97917 5.82031 9.47135 5.92448 8.97656 6.13281L7.17969 4.33594C8.19531 3.94531 9.30208 3.75 10.5 3.75C12.5573 3.75 14.4062 4.32292 16.0469 5.46875C17.7135 6.61458 18.9115 8.125 19.6406 10C19.0156 11.5365 18.0651 12.8516 16.7891 13.9453L14.3672 11.5234C14.5755 11.0286 14.6797 10.5208 14.6797 10C14.6797 8.85417 14.263 7.8776 13.4297 7.07031C12.6224 6.23698 11.6458 5.82031 10.5 5.82031Z" fill="currentColor" fill-opacity="0.75"/>
  </symbol>
  <symbol viewBox="0 0 16 16" fill="none" id="search">
    <path d="M4.21875 8.46875C4.80208 9.05208 5.51042 9.34375 6.34375 9.34375C7.17708 9.34375 7.88542 9.05208 8.46875 8.46875C9.05208 7.88542 9.34375 7.17708 9.34375 6.34375C9.34375 5.51042 9.05208 4.80208 8.46875 4.21875C7.88542 3.63542 7.17708 3.34375 6.34375 3.34375C5.51042 3.34375 4.80208 3.63542 4.21875 4.21875C3.63542 4.80208 3.34375 5.51042 3.34375 6.34375C3.34375 7.17708 3.63542 7.88542 4.21875 8.46875ZM10.3438 9.34375L13.6562 12.6562L12.6562 13.6562L9.34375 10.3438V9.8125L9.15625 9.625C8.36458 10.3125 7.42708 10.6562 6.34375 10.6562C5.13542 10.6562 4.10417 10.2396 3.25 9.40625C2.41667 8.57292 2 7.55208 2 6.34375C2 5.13542 2.41667 4.11458 3.25 3.28125C4.10417 2.42708 5.13542 2 6.34375 2C7.55208 2 8.57292 2.42708 9.40625 3.28125C10.2396 4.11458 10.6562 5.13542 10.6562 6.34375C10.6562 6.78125 10.5521 7.28125 10.3438 7.84375C10.1354 8.38542 9.89583 8.82292 9.625 9.15625L9.8125 9.34375H10.3438Z" fill="currentColor"/>
  </symbol>
  <symbol viewBox="0 0 16 16" fill="none" id="chat">
    <path d="M12 5.34375V4H4V5.34375H12ZM9.34375 9.34375V8H4V9.34375H9.34375ZM4 6V7.34375H12V6H4ZM13.3438 1.34375C13.6979 1.34375 14 1.47917 14.25 1.75C14.5208 2 14.6562 2.30208 14.6562 2.65625V10.6562C14.6562 11.0104 14.5208 11.3229 14.25 11.5938C14 11.8646 13.6979 12 13.3438 12H4L1.34375 14.6562V2.65625C1.34375 2.30208 1.46875 2 1.71875 1.75C1.98958 1.47917 2.30208 1.34375 2.65625 1.34375H13.3438Z" fill="currentColor"/>
  </symbol>
  <symbol viewBox="0 0 16 16" fill="none" id="home">
    <path d="M6.65625 13.3438H3.34375V8H1.34375L8 2L14.6562 8H12.6562V13.3438H9.34375V9.34375H6.65625V13.3438Z" fill="currentColor"/>
  </symbol>
  <symbol viewBox="0 0 16 16" fill="none" id="arrow-left">
    <path d="M5.22266 11.4453L8.66797 8L5.22266 4.55469L6.27734 3.5L10.7773 8L6.27734 12.5L5.22266 11.4453Z" fill="currentColor"/>
  </symbol>
</svg>
